<svg width="429" height="63" viewBox="0 0 429 63" fill="none" xmlns="http://www.w3.org/2000/svg">
<path d="M48.2393 41H36.5215C35.2604 41 34.1136 40.763 33.0811 40.2891C32.0485 39.8151 31.1641 39.1676 30.4277 38.3467C29.6999 37.5257 29.137 36.5609 28.7393 35.4521C28.3415 34.3434 28.1426 33.1585 28.1426 31.8975C28.1426 30.6449 28.3415 29.4684 28.7393 28.3682C29.137 27.2594 29.6999 26.2946 30.4277 25.4736C31.1641 24.6442 32.0485 23.9925 33.0811 23.5186C34.1136 23.0361 35.2604 22.7949 36.5215 22.7949H48.2393V25.3975H36.5215C35.6243 25.3975 34.8161 25.571 34.0967 25.918C33.3857 26.2565 32.7806 26.722 32.2812 27.3145C31.7904 27.8984 31.4095 28.584 31.1387 29.3711C30.8763 30.1582 30.7451 31.0003 30.7451 31.8975C30.7451 32.7946 30.8763 33.641 31.1387 34.4365C31.4095 35.2236 31.7904 35.9134 32.2812 36.5059C32.7806 37.0898 33.3857 37.5511 34.0967 37.8896C34.8161 38.2282 35.6243 38.3975 36.5215 38.3975H45.6367V33.2051H34.6172V30.6025H48.2393V41ZM68.4121 41H58.6621C57.6803 41 56.7578 40.8138 55.8945 40.4414C55.0312 40.0605 54.278 39.5485 53.6348 38.9053C53 38.2536 52.4964 37.4961 52.124 36.6328C51.7516 35.7611 51.5654 34.8343 51.5654 33.8525V26.7051H54.168V33.8525C54.168 34.4788 54.2822 35.0671 54.5107 35.6172C54.7477 36.1589 55.0693 36.637 55.4756 37.0518C55.8818 37.458 56.3558 37.7839 56.8975 38.0293C57.4476 38.2663 58.0358 38.389 58.6621 38.3975H65.8096V26.7051H68.4121V41ZM86.3633 29.2949H76.6133C76.3424 29.2949 76.0885 29.3499 75.8516 29.46C75.6146 29.5615 75.4072 29.7012 75.2295 29.8789C75.0518 30.0566 74.9121 30.264 74.8105 30.501C74.709 30.738 74.6582 30.9876 74.6582 31.25V41H72.0557V31.25C72.0557 30.6152 72.1742 30.0228 72.4111 29.4727C72.6481 28.9225 72.974 28.4443 73.3887 28.0381C73.8034 27.6234 74.2858 27.2975 74.8359 27.0605C75.3861 26.8236 75.9785 26.7051 76.6133 26.7051H86.3633V29.2949ZM93.5615 41H92.9141C92.2793 41 91.6868 40.8815 91.1367 40.6445C90.5866 40.4076 90.1042 40.0859 89.6895 39.6797C89.2747 39.265 88.9489 38.7826 88.7119 38.2324C88.4749 37.6738 88.3564 37.0814 88.3564 36.4551V21.5H90.959V36.4551C90.959 36.7259 91.0098 36.9798 91.1113 37.2168C91.2129 37.4453 91.3525 37.6484 91.5303 37.8262C91.708 38.0039 91.9154 38.1436 92.1523 38.2451C92.3893 38.3467 92.6432 38.3975 92.9141 38.3975H93.5615V41ZM99.0713 23.4551C99.0713 23.7259 99.0205 23.9798 98.9189 24.2168C98.8174 24.4453 98.6777 24.6484 98.5 24.8262C98.3223 25.0039 98.1149 25.1436 97.8779 25.2451C97.641 25.3467 97.3913 25.3975 97.1289 25.3975C96.8581 25.3975 96.6042 25.3467 96.3672 25.2451C96.1302 25.1436 95.9229 25.0039 95.7451 24.8262C95.5674 24.6484 95.4277 24.4453 95.3262 24.2168C95.2246 23.9798 95.1738 23.7259 95.1738 23.4551C95.1738 23.1927 95.2246 22.943 95.3262 22.7061C95.4277 22.4691 95.5674 22.2617 95.7451 22.084C95.9229 21.9062 96.1302 21.7666 96.3672 21.665C96.6042 21.555 96.8581 21.5 97.1289 21.5C97.3913 21.5 97.641 21.555 97.8779 21.665C98.1149 21.7666 98.3223 21.9062 98.5 22.084C98.6777 22.2617 98.8174 22.4691 98.9189 22.7061C99.0205 22.943 99.0713 23.1927 99.0713 23.4551ZM98.4238 41H95.8213V26.7051H98.4238V41ZM119.384 26.7051L111.487 41H108.517L100.671 26.7051H103.705L110.002 38.2959L116.35 26.7051H119.384ZM126.696 41H126.049C125.414 41 124.822 40.8815 124.271 40.6445C123.721 40.4076 123.239 40.0859 122.824 39.6797C122.41 39.265 122.084 38.7826 121.847 38.2324C121.61 37.6738 121.491 37.0814 121.491 36.4551V21.5H124.094V36.4551C124.094 36.7259 124.145 36.9798 124.246 37.2168C124.348 37.4453 124.487 37.6484 124.665 37.8262C124.843 38.0039 125.05 38.1436 125.287 38.2451C125.524 38.3467 125.778 38.3975 126.049 38.3975H126.696V41ZM145.6 31.25C145.6 31.8848 145.481 32.4772 145.244 33.0273C145.007 33.5775 144.681 34.0599 144.267 34.4746C143.86 34.8809 143.378 35.2025 142.819 35.4395C142.269 35.6764 141.681 35.7949 141.055 35.7949H131.089C131.275 36.1758 131.508 36.527 131.787 36.8486C132.066 37.1702 132.38 37.4453 132.727 37.6738C133.074 37.9023 133.45 38.0801 133.856 38.207C134.271 38.334 134.703 38.3975 135.151 38.3975H143.657V41H135.151C134.17 40.9915 133.247 40.8011 132.384 40.4287C131.521 40.0479 130.767 39.5358 130.124 38.8926C129.489 38.2409 128.986 37.4834 128.613 36.6201C128.241 35.7568 128.055 34.8343 128.055 33.8525C128.055 32.8708 128.241 31.9482 128.613 31.085C128.986 30.2217 129.489 29.4684 130.124 28.8252C130.767 28.1735 131.521 27.6615 132.384 27.2891C133.247 26.9082 134.17 26.7135 135.151 26.7051H141.055C141.681 26.7051 142.269 26.8236 142.819 27.0605C143.378 27.2975 143.86 27.6234 144.267 28.0381C144.681 28.4443 145.007 28.9225 145.244 29.4727C145.481 30.0228 145.6 30.6152 145.6 31.25ZM141.055 33.2051C141.317 33.2051 141.567 33.1543 141.804 33.0527C142.041 32.9512 142.248 32.8115 142.426 32.6338C142.604 32.4561 142.743 32.2487 142.845 32.0117C142.946 31.7747 142.997 31.5208 142.997 31.25C142.997 30.9876 142.946 30.738 142.845 30.501C142.743 30.264 142.604 30.0566 142.426 29.8789C142.248 29.7012 142.041 29.5615 141.804 29.46C141.567 29.3499 141.317 29.2949 141.055 29.2949H135.151C134.576 29.2949 134.034 29.3965 133.526 29.5996C133.027 29.8027 132.578 30.082 132.181 30.4375C131.791 30.7845 131.465 31.1992 131.203 31.6816C130.949 32.1556 130.784 32.6634 130.708 33.2051H141.055ZM164.795 31.25C164.795 31.8848 164.676 32.4772 164.439 33.0273C164.202 33.5775 163.877 34.0599 163.462 34.4746C163.056 34.8809 162.573 35.2025 162.015 35.4395C161.465 35.6764 160.876 35.7949 160.25 35.7949H150.284C150.47 36.1758 150.703 36.527 150.982 36.8486C151.262 37.1702 151.575 37.4453 151.922 37.6738C152.269 37.9023 152.646 38.0801 153.052 38.207C153.466 38.334 153.898 38.3975 154.347 38.3975H162.853V41H154.347C153.365 40.9915 152.442 40.8011 151.579 40.4287C150.716 40.0479 149.963 39.5358 149.319 38.8926C148.685 38.2409 148.181 37.4834 147.809 36.6201C147.436 35.7568 147.25 34.8343 147.25 33.8525C147.25 32.8708 147.436 31.9482 147.809 31.085C148.181 30.2217 148.685 29.4684 149.319 28.8252C149.963 28.1735 150.716 27.6615 151.579 27.2891C152.442 26.9082 153.365 26.7135 154.347 26.7051H160.25C160.876 26.7051 161.465 26.8236 162.015 27.0605C162.573 27.2975 163.056 27.6234 163.462 28.0381C163.877 28.4443 164.202 28.9225 164.439 29.4727C164.676 30.0228 164.795 30.6152 164.795 31.25ZM160.25 33.2051C160.512 33.2051 160.762 33.1543 160.999 33.0527C161.236 32.9512 161.443 32.8115 161.621 32.6338C161.799 32.4561 161.938 32.2487 162.04 32.0117C162.142 31.7747 162.192 31.5208 162.192 31.25C162.192 30.9876 162.142 30.738 162.04 30.501C161.938 30.264 161.799 30.0566 161.621 29.8789C161.443 29.7012 161.236 29.5615 160.999 29.46C160.762 29.3499 160.512 29.2949 160.25 29.2949H154.347C153.771 29.2949 153.229 29.3965 152.722 29.5996C152.222 29.8027 151.774 30.082 151.376 30.4375C150.987 30.7845 150.661 31.1992 150.398 31.6816C150.145 32.1556 149.979 32.6634 149.903 33.2051H160.25ZM169.949 41H167.347V26.7051H177.097C178.078 26.7051 179.001 26.8955 179.864 27.2764C180.728 27.6488 181.481 28.1608 182.124 28.8125C182.767 29.4557 183.275 30.2132 183.647 31.085C184.02 31.9482 184.206 32.8708 184.206 33.8525V41H181.604V33.8525C181.604 33.2262 181.485 32.638 181.248 32.0879C181.011 31.5378 180.689 31.0596 180.283 30.6533C179.877 30.2386 179.399 29.9128 178.849 29.6758C178.307 29.4303 177.723 29.3034 177.097 29.2949H169.949V41ZM217.874 35.7949C217.874 36.5228 217.739 37.2041 217.468 37.8389C217.197 38.4652 216.825 39.0153 216.351 39.4893C215.885 39.9548 215.335 40.3229 214.7 40.5938C214.074 40.8646 213.401 41 212.682 41H196.863V38.3975H212.682C213.046 38.3975 213.384 38.3298 213.697 38.1943C214.01 38.0589 214.281 37.8727 214.51 37.6357C214.747 37.3988 214.933 37.1237 215.068 36.8105C215.204 36.4889 215.271 36.1504 215.271 35.7949C215.271 35.4395 215.204 35.1051 215.068 34.792C214.933 34.4788 214.747 34.2038 214.51 33.9668C214.281 33.7298 214.01 33.5436 213.697 33.4082C213.384 33.2728 213.046 33.2051 212.682 33.2051H202.068C201.357 33.2051 200.685 33.0697 200.05 32.7988C199.415 32.528 198.861 32.1598 198.387 31.6943C197.921 31.2204 197.549 30.666 197.27 30.0312C196.999 29.3965 196.863 28.7194 196.863 28C196.863 27.2891 196.999 26.6162 197.27 25.9814C197.549 25.3467 197.921 24.7965 198.387 24.3311C198.861 23.8571 199.415 23.4847 200.05 23.2139C200.685 22.9346 201.357 22.7949 202.068 22.7949H216.579V25.3975H202.068C201.713 25.3975 201.374 25.4652 201.053 25.6006C200.74 25.736 200.465 25.9222 200.228 26.1592C199.991 26.3962 199.804 26.6755 199.669 26.9971C199.534 27.3102 199.466 27.6445 199.466 28C199.466 28.3555 199.534 28.694 199.669 29.0156C199.804 29.3288 199.991 29.6038 200.228 29.8408C200.465 30.0778 200.74 30.264 201.053 30.3994C201.374 30.5348 201.713 30.6025 202.068 30.6025H212.682C213.401 30.6025 214.074 30.7422 214.7 31.0215C215.335 31.2923 215.885 31.6647 216.351 32.1387C216.825 32.6042 217.197 33.1543 217.468 33.7891C217.739 34.4154 217.874 35.084 217.874 35.7949ZM223.866 23.4551C223.866 23.7259 223.815 23.9798 223.714 24.2168C223.612 24.4453 223.473 24.6484 223.295 24.8262C223.117 25.0039 222.91 25.1436 222.673 25.2451C222.436 25.3467 222.186 25.3975 221.924 25.3975C221.653 25.3975 221.399 25.3467 221.162 25.2451C220.925 25.1436 220.718 25.0039 220.54 24.8262C220.362 24.6484 220.223 24.4453 220.121 24.2168C220.02 23.9798 219.969 23.7259 219.969 23.4551C219.969 23.1927 220.02 22.943 220.121 22.7061C220.223 22.4691 220.362 22.2617 220.54 22.084C220.718 21.9062 220.925 21.7666 221.162 21.665C221.399 21.555 221.653 21.5 221.924 21.5C222.186 21.5 222.436 21.555 222.673 21.665C222.91 21.7666 223.117 21.9062 223.295 22.084C223.473 22.2617 223.612 22.4691 223.714 22.7061C223.815 22.943 223.866 23.1927 223.866 23.4551ZM223.219 41H220.616V26.7051H223.219V41ZM229.566 41H226.964V26.7051H236.714C237.696 26.7051 238.618 26.8955 239.481 27.2764C240.345 27.6488 241.098 28.1608 241.741 28.8125C242.384 29.4557 242.892 30.2132 243.265 31.085C243.637 31.9482 243.823 32.8708 243.823 33.8525V41H241.221V33.8525C241.221 33.2262 241.102 32.638 240.865 32.0879C240.628 31.5378 240.307 31.0596 239.9 30.6533C239.494 30.2386 239.016 29.9128 238.466 29.6758C237.924 29.4303 237.34 29.3034 236.714 29.2949H229.566V41ZM263.272 41.6475C263.272 42.2822 263.15 42.8747 262.904 43.4248C262.667 43.9749 262.341 44.4574 261.927 44.8721C261.521 45.2868 261.038 45.6126 260.479 45.8496C259.929 46.0866 259.341 46.2051 258.715 46.2051H248.317V43.6025H258.715C258.977 43.6025 259.227 43.5518 259.464 43.4502C259.701 43.3486 259.908 43.209 260.086 43.0312C260.264 42.8535 260.403 42.6462 260.505 42.4092C260.615 42.1722 260.67 41.9183 260.67 41.6475V29.2949H253.522C252.896 29.3034 252.308 29.4303 251.758 29.6758C251.216 29.9128 250.742 30.2386 250.336 30.6533C249.93 31.0596 249.608 31.5378 249.371 32.0879C249.143 32.638 249.028 33.2262 249.028 33.8525C249.028 34.4788 249.143 35.0671 249.371 35.6172C249.608 36.1589 249.93 36.637 250.336 37.0518C250.742 37.458 251.216 37.7839 251.758 38.0293C252.308 38.2663 252.896 38.389 253.522 38.3975H259.375V41H253.522C252.541 40.9915 251.618 40.8011 250.755 40.4287C249.892 40.0479 249.138 39.5358 248.495 38.8926C247.86 38.2409 247.357 37.4834 246.984 36.6201C246.612 35.7568 246.426 34.8343 246.426 33.8525C246.426 32.8708 246.612 31.9482 246.984 31.085C247.357 30.2217 247.86 29.4684 248.495 28.8252C249.138 28.1735 249.892 27.6615 250.755 27.2891C251.618 26.9082 252.541 26.7135 253.522 26.7051H263.272V41.6475ZM283.864 41H281.262V33.8525C281.262 33.2262 281.143 32.638 280.906 32.0879C280.669 31.5378 280.348 31.0596 279.941 30.6533C279.535 30.2386 279.057 29.9128 278.507 29.6758C277.965 29.4303 277.381 29.3034 276.755 29.2949H269.607V41H267.005V21.5H269.607V26.7051H276.755C277.737 26.7051 278.659 26.8955 279.522 27.2764C280.386 27.6488 281.139 28.1608 281.782 28.8125C282.425 29.4557 282.933 30.2132 283.306 31.085C283.678 31.9482 283.864 32.8708 283.864 33.8525V41ZM318.599 41H315.095L305.802 31.6436L300.038 35.7949V41H297.436V22.7949H300.038V32.9385L314.308 22.7949H318.104L307.782 30.209L318.599 41ZM336.512 41H323.512C322.877 41 322.285 40.8815 321.734 40.6445C321.184 40.4076 320.702 40.0859 320.287 39.6797C319.872 39.265 319.547 38.7826 319.31 38.2324C319.073 37.6738 318.954 37.0814 318.954 36.4551C318.954 35.8203 319.073 35.2279 319.31 34.6777C319.547 34.1276 319.872 33.6452 320.287 33.2305C320.702 32.8158 321.184 32.4899 321.734 32.2529C322.285 32.016 322.877 31.8975 323.512 31.8975H332.602V34.5H323.512C323.241 34.5 322.987 34.555 322.75 34.665C322.513 34.7666 322.306 34.9062 322.128 35.084C321.95 35.2617 321.811 35.4691 321.709 35.7061C321.607 35.943 321.557 36.1927 321.557 36.4551C321.557 36.7259 321.607 36.9798 321.709 37.2168C321.811 37.4453 321.95 37.6484 322.128 37.8262C322.306 38.0039 322.513 38.1436 322.75 38.2451C322.987 38.3467 323.241 38.3975 323.512 38.3975H333.909V31.25C333.909 30.9876 333.854 30.738 333.744 30.501C333.643 30.264 333.503 30.0566 333.325 29.8789C333.147 29.7012 332.94 29.5615 332.703 29.46C332.466 29.3499 332.216 29.2949 331.954 29.2949H321.557V26.7051H331.954C332.589 26.7051 333.181 26.8236 333.731 27.0605C334.282 27.2975 334.764 27.6234 335.179 28.0381C335.593 28.4443 335.919 28.9225 336.156 29.4727C336.393 30.0228 336.512 30.6152 336.512 31.25V41ZM343.405 23.4551C343.405 23.7259 343.354 23.9798 343.253 24.2168C343.151 24.4453 343.012 24.6484 342.834 24.8262C342.656 25.0039 342.449 25.1436 342.212 25.2451C341.975 25.3467 341.725 25.3975 341.463 25.3975C341.192 25.3975 340.938 25.3467 340.701 25.2451C340.464 25.1436 340.257 25.0039 340.079 24.8262C339.901 24.6484 339.762 24.4453 339.66 24.2168C339.559 23.9798 339.508 23.7259 339.508 23.4551C339.508 23.1927 339.559 22.943 339.66 22.7061C339.762 22.4691 339.901 22.2617 340.079 22.084C340.257 21.9062 340.464 21.7666 340.701 21.665C340.938 21.555 341.192 21.5 341.463 21.5C341.725 21.5 341.975 21.555 342.212 21.665C342.449 21.7666 342.656 21.9062 342.834 22.084C343.012 22.2617 343.151 22.4691 343.253 22.7061C343.354 22.943 343.405 23.1927 343.405 23.4551ZM342.758 41H340.155V26.7051H342.758V41ZM349.105 41H346.503V26.7051H356.253C357.235 26.7051 358.157 26.8955 359.021 27.2764C359.884 27.6488 360.637 28.1608 361.28 28.8125C361.924 29.4557 362.431 30.2132 362.804 31.085C363.176 31.9482 363.362 32.8708 363.362 33.8525V41H360.76V33.8525C360.76 33.2262 360.641 32.638 360.404 32.0879C360.167 31.5378 359.846 31.0596 359.439 30.6533C359.033 30.2386 358.555 29.9128 358.005 29.6758C357.463 29.4303 356.879 29.3034 356.253 29.2949H349.105V41ZM371.665 41H369.062V29.2949H365.165V26.7051H369.062V21.5H371.665V26.7051H380.768V29.2949H371.665V41ZM399.671 41H397.068V33.8525C397.068 33.2262 396.95 32.638 396.713 32.0879C396.476 31.5378 396.154 31.0596 395.748 30.6533C395.342 30.2386 394.864 29.9128 394.313 29.6758C393.772 29.4303 393.188 29.3034 392.562 29.2949H385.414V41H382.812V21.5H385.414V26.7051H392.562C393.543 26.7051 394.466 26.8955 395.329 27.2764C396.192 27.6488 396.946 28.1608 397.589 28.8125C398.232 29.4557 398.74 30.2132 399.112 31.085C399.485 31.9482 399.671 32.8708 399.671 33.8525V41Z" fill="black"/>
<path d="M411.521 17.7539L425.918 30.6016C426.51 31.1432 426.807 31.8034 426.807 32.582C426.807 32.9544 426.73 33.3099 426.578 33.6484C426.426 33.987 426.206 34.2747 425.918 34.5117L411.623 46.9785H404.818L421.297 32.5312L404.768 17.7539H411.521Z" fill="black"/>
<path d="M23.918 17.7539L7.38867 32.5312L23.8672 46.9785H17.0625L2.76758 34.5117C2.47982 34.2747 2.25977 33.987 2.10742 33.6484C1.95508 33.3099 1.87891 32.9544 1.87891 32.582C1.87891 31.8034 2.17513 31.1432 2.76758 30.6016L17.1641 17.7539H23.918Z" fill="black"/>
</svg>
